<svg version="1.1" id="Layer_1" xmlns="http://www.w3.org/2000/svg" xmlns:xlink="http://www.w3.org/1999/xlink" x="0px" y="0px"
	 width="100%" viewBox="0 0 200 200" enable-background="new 0 0 200 200" xml:space="preserve">
<path fill="#000000" opacity="1.000000" stroke="none" 
	d="
M1.000000,75.000000 
	C1.000000,50.000008 1.000000,25.500011 1.000000,1.000013 
	C67.666649,1.000009 134.333298,1.000009 200.999954,1.000004 
	C200.999969,67.666634 200.999969,134.333267 200.999985,200.999908 
	C134.333389,200.999939 67.666771,200.999939 1.000080,200.999969 
	C1.000000,159.166672 1.000000,117.333336 1.000000,75.000000 
M103.961777,188.840042 
	C115.714760,188.787201 127.050964,186.507828 137.691483,181.580688 
	C154.592621,173.754532 167.946640,162.013763 177.240524,145.595306 
	C184.669510,132.471344 188.893845,118.578491 188.884628,103.572906 
	C188.880432,96.725327 187.956238,89.837204 186.959030,83.039391 
	C184.406952,65.642014 176.390839,50.691929 164.352646,38.253300 
	C151.236465,24.700808 135.056091,16.110243 116.226707,13.244395 
	C111.856857,12.579301 107.315186,13.043124 101.945427,12.997819 
	C93.797516,13.982687 85.517616,14.356068 77.529282,16.080269 
	C61.118683,19.622330 47.444073,28.411987 36.210716,40.664658 
	C23.704973,54.305157 15.742815,70.167953 13.757173,88.943535 
	C12.632242,99.580513 12.255583,110.124634 15.080252,120.396713 
	C18.316113,132.164139 22.828503,143.621841 21.026070,156.191223 
	C21.002867,156.353043 21.027212,156.524384 21.046579,156.689255 
	C21.989429,164.716278 26.193480,169.723724 34.153435,171.420013 
	C37.504860,172.134216 41.126808,171.504776 44.533516,172.056152 
	C47.491798,172.534988 50.627377,173.306885 53.155334,174.828552 
	C68.542702,184.090576 85.052048,189.066422 103.961777,188.840042 
z"/>
<path fill="#9D8D0F" opacity="1.000000" stroke="none" 
	d="
M102.852577,12.987490 
	C107.315186,13.043124 111.856857,12.579301 116.226707,13.244395 
	C135.056091,16.110243 151.236465,24.700808 164.352646,38.253300 
	C176.390839,50.691929 184.406952,65.642014 186.959030,83.039391 
	C187.956238,89.837204 188.880432,96.725327 188.884628,103.572906 
	C188.893845,118.578491 184.669510,132.471344 177.240524,145.595306 
	C167.946640,162.013763 154.592621,173.754532 137.691483,181.580688 
	C127.050964,186.507828 115.714760,188.787201 103.509369,188.405945 
	C103.072624,186.691162 103.088280,185.410477 103.328667,184.079041 
	C103.553398,184.028290 103.981255,183.854904 104.410278,183.925095 
	C106.571739,183.911896 108.304184,183.828491 110.267029,183.787994 
	C110.497437,183.830902 110.943161,183.685898 111.338577,183.717575 
	C113.539658,183.473129 115.346893,183.206772 117.150780,182.919464 
	C151.453537,177.455765 181.033539,145.810089 183.254578,112.187729 
	C183.550766,111.741913 183.552750,111.462013 183.544479,110.827858 
	C183.704605,109.970238 183.722977,109.465912 183.814056,108.732559 
	C183.886749,108.503517 183.811432,108.028862 183.897873,107.568924 
	C183.931503,102.731926 183.878708,98.354874 183.865509,93.739700 
	C183.905106,93.501579 183.763992,93.039871 183.799805,92.638184 
	C183.153732,88.478638 182.471817,84.720772 181.797638,80.659500 
	C181.576706,80.036385 181.348038,79.716682 181.141327,79.031555 
	C177.801605,65.402206 171.716843,53.629967 161.940918,43.506607 
	C156.212357,38.637936 150.612167,34.072025 144.738419,29.256840 
	C131.255371,21.759439 117.267059,17.438377 102.208237,17.404812 
	C102.526299,15.720273 102.689438,14.353882 102.852577,12.987490 
z"/>
<path fill="#A50403" opacity="1.000000" stroke="none" 
	d="
M102.399002,12.992655 
	C102.689438,14.353882 102.526299,15.720273 101.942680,17.549465 
	C101.285355,18.327541 101.048515,18.642818 100.650185,18.953495 
	C100.488701,18.948893 100.165833,18.936422 99.877838,18.620955 
	C95.723351,18.595406 91.856842,18.885324 87.569122,19.111603 
	C83.058884,19.891106 78.969856,20.734247 74.511658,21.678123 
	C70.313797,23.454350 66.485107,25.129843 62.314964,26.858408 
	C45.037712,35.934402 32.312061,48.881584 24.598042,66.997467 
	C22.831007,72.076355 21.318163,76.894814 19.566986,82.034073 
	C18.682920,88.885040 18.037188,95.415215 17.304138,102.366516 
	C17.851864,107.521774 18.486904,112.255882 19.113670,117.375687 
	C20.302053,121.547523 21.498709,125.333687 22.743912,129.488281 
	C23.862995,132.571243 24.933531,135.285767 25.938141,138.457169 
	C25.914175,142.609970 25.956133,146.305862 25.936535,150.449219 
	C25.371901,157.398666 26.037558,163.633789 33.092270,166.245789 
	C36.225567,167.405914 39.971416,167.217941 43.425838,167.127991 
	C47.896088,167.011581 51.561443,168.428268 55.588047,170.433350 
	C64.432510,174.837540 73.820488,178.150253 83.376938,182.030579 
	C90.152779,182.742996 96.538246,183.333389 102.986641,183.959656 
	C103.049561,183.995529 103.103935,184.129807 103.103935,184.129807 
	C103.088280,185.410477 103.072624,186.691162 103.066696,188.355621 
	C85.052048,189.066422 68.542702,184.090576 53.155334,174.828552 
	C50.627377,173.306885 47.491798,172.534988 44.533516,172.056152 
	C41.126808,171.504776 37.504860,172.134216 34.153435,171.420013 
	C26.193480,169.723724 21.989429,164.716278 21.046579,156.689255 
	C21.027212,156.524384 21.002867,156.353043 21.026070,156.191223 
	C22.828503,143.621841 18.316113,132.164139 15.080252,120.396713 
	C12.255583,110.124634 12.632242,99.580513 13.757173,88.943535 
	C15.742815,70.167953 23.704973,54.305157 36.210716,40.664658 
	C47.444073,28.411987 61.118683,19.622330 77.529282,16.080269 
	C85.517616,14.356068 93.797516,13.982687 102.399002,12.992655 
z"/>
<path fill="#FBE9BE" opacity="1.000000" stroke="none" 
	d="
M110.036629,183.745102 
	C108.304184,183.828491 106.571739,183.911896 104.301270,183.758316 
	C103.595284,183.311813 103.397285,183.136108 103.101883,182.619965 
	C102.983452,181.487366 102.932388,180.729065 102.969727,179.788239 
	C103.058128,179.605713 103.186234,179.221207 103.638191,179.213989 
	C127.587723,179.248734 146.455612,169.563324 161.597900,151.943481 
	C180.514267,129.932083 185.509903,93.748703 172.891174,68.781044 
	C172.637161,68.385574 172.448959,68.197739 172.163315,67.682953 
	C171.062836,65.217484 170.026428,63.112392 168.927551,60.665871 
	C166.649139,57.358608 164.433228,54.392769 162.155548,51.126694 
	C161.363663,49.635586 160.633545,48.444717 160.103348,46.971535 
	C160.891937,45.729279 161.480606,44.769329 162.069275,43.809376 
	C171.716843,53.629967 177.801605,65.402206 181.193787,79.317886 
	C181.412857,80.300735 181.601379,80.631821 181.789917,80.962914 
	C182.471817,84.720772 183.153732,88.478638 183.704819,92.744484 
	C183.467865,93.550537 183.551834,93.792320 183.825897,93.977821 
	C183.878708,98.354874 183.931503,102.731926 183.792267,107.663361 
	C183.449005,108.495323 183.496063,108.743271 183.741348,108.961594 
	C183.722977,109.465912 183.704605,109.970238 183.455307,111.009613 
	C183.131424,111.806938 183.094070,112.076912 183.112320,112.354607 
	C181.033539,145.810089 151.453537,177.455765 117.150780,182.919464 
	C115.346893,183.206772 113.539658,183.473129 111.234879,183.630585 
	C110.452797,183.416122 110.219749,183.493851 110.036629,183.745102 
z"/>
<path fill="#FAF4CB" opacity="1.000000" stroke="none" 
	d="
M100.811668,18.958096 
	C101.048515,18.642818 101.285355,18.327541 101.787758,17.867615 
	C117.267059,17.438377 131.255371,21.759439 144.367523,29.485783 
	C143.844254,30.989063 143.418289,32.014122 142.664795,32.962917 
	C140.923172,32.229580 139.509079,31.572512 137.845352,30.672142 
	C134.722565,29.291052 131.849442,28.153259 128.704834,26.767717 
	C124.955460,25.678577 121.477547,24.837189 117.630081,23.816921 
	C113.830208,23.381046 110.399879,23.124050 106.666458,22.741323 
	C105.286888,22.435688 104.210419,22.255783 102.991982,21.780460 
	C102.170570,20.642727 101.491119,19.800411 100.811668,18.958096 
z"/>
<path fill="#FAEEC3" opacity="1.000000" stroke="none" 
	d="
M142.992340,33.039185 
	C143.418289,32.014122 143.844254,30.989063 144.641083,29.735060 
	C150.612167,34.072025 156.212357,38.637936 161.940918,43.506607 
	C161.480606,44.769329 160.891937,45.729279 159.812347,46.793350 
	C157.606796,45.416885 155.892166,43.936298 154.056213,42.180801 
	C151.312225,39.863804 148.689560,37.821709 145.899857,35.532104 
	C144.819321,34.536129 143.905823,33.787655 142.992340,33.039185 
z"/>
<path fill="#FBE4B6" opacity="1.000000" stroke="none" 
	d="
M110.267029,183.787994 
	C110.219749,183.493851 110.452797,183.416122 110.839462,183.598907 
	C110.943161,183.685898 110.497437,183.830902 110.267029,183.787994 
z"/>
<path fill="#FBE4B6" opacity="1.000000" stroke="none" 
	d="
M103.169258,182.994263 
	C103.397285,183.136108 103.595284,183.311813 103.872253,183.688126 
	C103.981255,183.854904 103.553398,184.028290 103.328667,184.079041 
	C103.103935,184.129807 103.049561,183.995529 103.038757,183.725220 
	C103.027946,183.454895 103.169258,182.994263 103.169258,182.994263 
z"/>
<path fill="#FBE4B6" opacity="1.000000" stroke="none" 
	d="
M181.797638,80.659500 
	C181.601379,80.631821 181.412857,80.300735 181.171844,79.683311 
	C181.348038,79.716682 181.576706,80.036385 181.797638,80.659500 
z"/>
<path fill="#FBE4B6" opacity="1.000000" stroke="none" 
	d="
M183.865509,93.739700 
	C183.551834,93.792320 183.467865,93.550537 183.669006,93.146172 
	C183.763992,93.039871 183.905106,93.501579 183.865509,93.739700 
z"/>
<path fill="#FBE4B6" opacity="1.000000" stroke="none" 
	d="
M183.814056,108.732559 
	C183.496063,108.743271 183.449005,108.495323 183.705811,108.123306 
	C183.811432,108.028862 183.886749,108.503517 183.814056,108.732559 
z"/>
<path fill="#FBE4B6" opacity="1.000000" stroke="none" 
	d="
M183.254578,112.187729 
	C183.094070,112.076912 183.131424,111.806938 183.313568,111.362915 
	C183.552750,111.462013 183.550766,111.741913 183.254578,112.187729 
z"/>
<path fill="#E34B4B" opacity="1.000000" stroke="none" 
	d="
M82.986572,181.908554 
	C73.820488,178.150253 64.432510,174.837540 55.588047,170.433350 
	C51.561443,168.428268 47.896088,167.011581 43.425838,167.127991 
	C39.971416,167.217941 36.225567,167.405914 33.092270,166.245789 
	C26.037558,163.633789 25.371901,157.398666 26.317408,150.448669 
	C27.775290,149.987076 28.790743,149.973480 29.884649,150.370071 
	C30.028273,152.166306 30.093443,153.552338 30.109013,155.322220 
	C30.376455,160.053085 32.528370,162.620728 37.491447,162.935486 
	C41.278263,162.936966 44.611504,162.905014 48.334427,162.928528 
	C50.581215,163.595261 52.540169,164.001419 54.273449,164.862061 
	C57.514252,166.471298 60.624123,168.344208 64.017746,170.372513 
	C69.053497,172.494324 73.859978,174.351059 78.930573,176.422440 
	C80.456924,177.128647 81.719147,177.620193 82.985977,178.492096 
	C82.989243,179.884491 82.987907,180.896515 82.986572,181.908554 
z"/>
<path fill="#F69D8C" opacity="1.000000" stroke="none" 
	d="
M24.852230,66.737022 
	C32.312061,48.881584 45.037712,35.934402 62.585983,27.050732 
	C63.830044,27.803288 64.461632,28.416590 64.918869,29.321560 
	C62.490623,31.065365 60.236713,32.517502 57.635357,34.034096 
	C44.427685,43.152081 34.336472,54.542419 27.530821,68.918991 
	C26.423155,68.152718 25.637693,67.444870 24.852230,66.737022 
z"/>
<path fill="#F14432" opacity="1.000000" stroke="none" 
	d="
M100.650185,18.953495 
	C101.491119,19.800411 102.170570,20.642727 102.947495,22.158085 
	C102.979492,23.850607 102.914009,24.870087 102.397873,25.912289 
	C94.947266,26.908556 87.947311,27.882101 80.554695,28.872375 
	C79.120125,29.002077 78.078217,29.115049 77.027702,28.815094 
	C77.017326,27.303541 77.015549,26.204920 77.379234,24.995840 
	C81.165276,23.935717 84.585854,22.986050 88.439941,22.050522 
	C92.637581,21.021915 96.401711,19.979170 100.165833,18.936422 
	C100.165833,18.936422 100.488701,18.948893 100.650185,18.953495 
z"/>
<path fill="#DC4343" opacity="1.000000" stroke="none" 
	d="
M83.376938,182.030579 
	C82.987907,180.896515 82.989243,179.884491 83.399559,178.477417 
	C90.166130,178.711868 96.523727,179.341324 102.881325,179.970779 
	C102.932388,180.729065 102.983452,181.487366 103.101883,182.619965 
	C103.169258,182.994263 103.027946,183.454895 102.975830,183.689331 
	C96.538246,183.333389 90.152779,182.742996 83.376938,182.030579 
z"/>
<path fill="#F5887A" opacity="1.000000" stroke="none" 
	d="
M17.391453,101.945381 
	C18.037188,95.415215 18.682920,88.885040 19.739445,82.321182 
	C21.049416,82.850319 21.948597,83.413162 22.885521,84.372726 
	C22.671684,86.852585 22.420103,88.935699 22.108418,91.437500 
	C21.717499,95.237503 21.386686,98.618835 20.689079,102.001038 
	C19.345339,101.983055 18.368395,101.964218 17.391453,101.945381 
z"/>
<path fill="#F69483" opacity="1.000000" stroke="none" 
	d="
M22.847775,83.975998 
	C21.948597,83.413162 21.049416,82.850319 19.977776,82.000374 
	C21.318163,76.894814 22.831007,72.076355 24.598042,66.997467 
	C25.637693,67.444870 26.423155,68.152718 27.458191,69.242218 
	C27.438889,70.686462 27.170015,71.749054 26.667923,73.090500 
	C25.239063,76.904900 24.043419,80.440453 22.847775,83.975998 
z"/>
<path fill="#F0766D" opacity="1.000000" stroke="none" 
	d="
M17.304138,102.366516 
	C18.368395,101.964218 19.345339,101.983055 20.879276,102.244102 
	C21.550905,103.295509 21.665539,104.104713 21.579796,105.217346 
	C21.891188,109.343628 22.402956,113.166481 22.535313,116.992325 
	C21.144583,116.993546 20.133263,116.991768 19.121943,116.989990 
	C18.486904,112.255882 17.851864,107.521774 17.304138,102.366516 
z"/>
<path fill="#F68C80" opacity="1.000000" stroke="none" 
	d="
M88.006424,22.036383 
	C84.585854,22.986050 81.165276,23.935717 77.057533,24.987282 
	C75.945312,25.143373 75.520248,25.197565 75.068512,24.792973 
	C74.988159,23.415255 74.934494,22.496323 74.880829,21.577389 
	C78.969856,20.734247 83.058884,19.891106 87.571609,19.468952 
	C87.999023,20.605423 88.002724,21.320902 88.006424,22.036383 
z"/>
<path fill="#F26D68" opacity="1.000000" stroke="none" 
	d="
M19.113670,117.375679 
	C20.133263,116.991768 21.144583,116.993546 22.673878,117.247070 
	C23.477175,118.001938 23.762497,118.505066 24.044758,119.413925 
	C24.660807,122.876427 25.279921,125.933182 25.498962,128.995728 
	C24.297716,129.040970 23.496540,129.080399 22.695366,129.119843 
	C21.498709,125.333687 20.302053,121.547523 19.113670,117.375679 
z"/>
<path fill="#ED5B5B" opacity="1.000000" stroke="none" 
	d="
M29.806196,149.959869 
	C28.790743,149.973480 27.775290,149.987076 26.378963,150.001221 
	C25.956133,146.305862 25.914175,142.609970 26.312176,138.456909 
	C27.749615,137.992355 28.747095,137.984970 29.814014,138.435165 
	C29.857700,142.581772 29.831949,146.270828 29.806196,149.959869 
z"/>
<path fill="#F69687" opacity="1.000000" stroke="none" 
	d="
M74.511658,21.678123 
	C74.934494,22.496323 74.988159,23.415255 74.785172,24.997387 
	C71.383415,26.783688 68.238312,27.906790 65.093216,29.029892 
	C64.461632,28.416590 63.830044,27.803288 62.927444,26.997662 
	C66.485107,25.129843 70.313797,23.454350 74.511658,21.678123 
z"/>
<path fill="#F68179" opacity="1.000000" stroke="none" 
	d="
M88.439941,22.050522 
	C88.002724,21.320902 87.999023,20.605423 87.992828,19.532593 
	C91.856842,18.885324 95.723351,18.595406 99.877838,18.620955 
	C96.401711,19.979170 92.637581,21.021915 88.439941,22.050522 
z"/>
<path fill="#F16464" opacity="1.000000" stroke="none" 
	d="
M29.744574,137.977600 
	C28.747095,137.984970 27.749615,137.992355 26.378101,138.000000 
	C24.933531,135.285767 23.862995,132.571243 22.743912,129.488281 
	C23.496540,129.080399 24.297716,129.040970 25.660858,129.295746 
	C27.409510,131.448853 28.596199,133.307739 29.813822,135.518372 
	C29.811363,136.572601 29.777967,137.275101 29.744574,137.977600 
z"/>
<path fill="#FCB63B" opacity="1.000000" stroke="none" 
	d="
M172.990372,68.955254 
	C185.509903,93.748703 180.514267,129.932083 161.597900,151.943481 
	C146.455612,169.563324 127.587723,179.248734 103.578255,178.829285 
	C103.092262,177.936539 103.118164,177.421249 103.577156,176.894226 
	C108.632347,176.392242 113.360916,176.367401 117.859764,175.338318 
	C155.025085,166.837036 178.827057,131.083694 172.779144,93.319252 
	C172.105621,89.113670 170.908752,86.013527 165.987808,85.690491 
	C166.347015,81.670410 166.616364,78.073433 167.064758,74.498909 
	C167.630112,69.992111 168.341599,65.503662 168.990021,61.007294 
	C170.026428,63.112392 171.062836,65.217484 172.170990,67.909813 
	C172.408035,68.786652 172.657242,68.939392 172.990372,68.955254 
z"/>
<path fill="#FBC84A" opacity="1.000000" stroke="none" 
	d="
M154.177551,42.455704 
	C155.892166,43.936298 157.606796,45.416885 159.612427,47.075661 
	C160.633545,48.444717 161.363663,49.635586 162.002655,51.516136 
	C162.242935,63.524857 163.277283,74.862671 160.592697,86.176865 
	C158.788879,86.203537 157.398422,86.165550 156.006866,85.687386 
	C157.419800,74.553818 158.240189,63.869781 155.989929,53.167355 
	C155.245407,49.626324 154.773895,46.027889 154.177551,42.455704 
z"/>
<path fill="#FDC042" opacity="1.000000" stroke="none" 
	d="
M161.006058,86.112206 
	C163.277283,74.862671 162.242935,63.524857 162.064423,51.816368 
	C164.433228,54.392769 166.649139,57.358608 168.927551,60.665871 
	C168.341599,65.503662 167.630112,69.992111 167.064758,74.498909 
	C166.616364,78.073433 166.347015,81.670410 165.575897,85.746696 
	C163.771088,86.194717 162.388580,86.153465 161.006058,86.112206 
z"/>
<path fill="#D60B0B" opacity="1.000000" stroke="none" 
	d="
M103.144073,176.905960 
	C103.118164,177.421249 103.092262,177.936539 103.126297,178.836517 
	C103.186234,179.221207 103.058128,179.605713 102.969727,179.788239 
	C96.523727,179.341324 90.166130,178.711868 83.394951,178.097076 
	C81.719147,177.620193 80.456924,177.128647 79.323479,176.231842 
	C87.236031,174.602203 95.019791,173.377823 102.865707,172.545471 
	C102.999924,174.260315 103.071999,175.583130 103.144073,176.905960 
z"/>
<path fill="#FBE4B6" opacity="1.000000" stroke="none" 
	d="
M172.891174,68.781044 
	C172.657242,68.939392 172.408035,68.786652 172.235077,68.270187 
	C172.448959,68.197739 172.637161,68.385574 172.891174,68.781044 
z"/>
<path fill="#F5E66B" opacity="1.000000" stroke="none" 
	d="
M117.999641,23.995798 
	C121.477547,24.837189 124.955460,25.678577 128.510803,27.001377 
	C129.071976,28.814157 129.280167,30.346193 130.081375,31.446373 
	C139.933044,44.974174 144.765686,59.793964 142.131073,76.647156 
	C141.621750,79.905220 141.363937,83.202591 140.570892,86.513596 
	C138.770660,86.430405 137.389587,86.315453 136.014114,85.841995 
	C136.655823,78.921242 137.291946,72.359009 138.142395,65.528671 
	C137.197281,62.520885 136.037857,59.781200 135.133423,56.765175 
	C135.441757,55.053642 136.046829,53.320717 135.459045,52.231472 
	C131.578033,45.039307 127.532845,37.930317 123.336952,30.916386 
	C121.851753,28.433702 119.795296,26.292759 117.999641,23.995798 
z"/>
<path fill="#F8D95B" opacity="1.000000" stroke="none" 
	d="
M142.664795,32.962917 
	C143.905823,33.787655 144.819321,34.536129 145.884689,35.953835 
	C146.456863,38.561092 146.648651,40.584530 147.335815,42.422794 
	C150.877243,51.896557 152.673645,61.624126 151.998611,71.755196 
	C151.679077,76.550903 151.339142,81.345238 150.584518,86.214783 
	C148.444504,86.246101 146.728409,86.202827 145.070587,85.755615 
	C149.284515,67.996117 147.281998,51.479614 138.601791,35.785591 
	C137.874664,34.470940 138.238190,32.553062 138.095001,30.915443 
	C139.509079,31.572512 140.923172,32.229580 142.664795,32.962917 
z"/>
<path fill="#F7E063" opacity="1.000000" stroke="none" 
	d="
M137.845352,30.672144 
	C138.238190,32.553062 137.874664,34.470940 138.601791,35.785591 
	C147.281998,51.479614 149.284515,67.996117 144.749390,85.865578 
	C143.243301,86.413597 142.116699,86.447716 140.990082,86.481834 
	C141.363937,83.202591 141.621750,79.905220 142.131073,76.647156 
	C144.765686,59.793964 139.933044,44.974174 130.081375,31.446373 
	C129.280167,30.346193 129.071976,28.814157 128.782272,27.249130 
	C131.849442,28.153259 134.722565,29.291052 137.845352,30.672144 
z"/>
<path fill="#F6E874" opacity="1.000000" stroke="none" 
	d="
M117.630081,23.816921 
	C119.795296,26.292759 121.851753,28.433702 123.336952,30.916386 
	C127.532845,37.930317 131.578033,45.039307 135.459045,52.231472 
	C136.046829,53.320717 135.441757,55.053642 134.837555,56.646500 
	C132.857941,55.866543 131.429230,54.928925 129.996979,53.594021 
	C127.862152,41.128307 120.031517,33.292183 110.461037,26.679142 
	C109.079025,25.724201 108.122818,24.153046 106.969559,22.867050 
	C110.399879,23.124050 113.830208,23.381046 117.630081,23.816921 
z"/>
<path fill="#F7EB80" opacity="1.000000" stroke="none" 
	d="
M106.666458,22.741322 
	C108.122818,24.153046 109.079025,25.724201 110.461037,26.679142 
	C120.031517,33.292183 127.862152,41.128307 129.610718,53.605335 
	C127.485077,53.636280 125.742149,53.258629 123.996109,52.498848 
	C122.407166,42.760891 112.097069,31.817560 103.112106,29.593195 
	C102.993065,28.085445 102.920799,26.987505 102.848526,25.889566 
	C102.914009,24.870087 102.979492,23.850607 103.089462,22.453503 
	C104.210419,22.255783 105.286888,22.435688 106.666458,22.741322 
z"/>
<path fill="#FAD152" opacity="1.000000" stroke="none" 
	d="
M151.008423,86.140198 
	C151.339142,81.345238 151.679077,76.550903 151.998611,71.755196 
	C152.673645,61.624126 150.877243,51.896557 147.335815,42.422794 
	C146.648651,40.584530 146.456863,38.561092 146.051743,36.201340 
	C148.689560,37.821709 151.312225,39.863804 154.056213,42.180801 
	C154.773895,46.027889 155.245407,49.626324 155.989929,53.167355 
	C158.240189,63.869781 157.419800,74.553818 155.593994,85.758316 
	C153.790955,86.226357 152.399704,86.183273 151.008423,86.140198 
z"/>
<path fill="#CD0707" opacity="1.000000" stroke="none" 
	d="
M29.814014,138.435165 
	C29.777967,137.275101 29.811363,136.572601 29.901690,135.117172 
	C30.669931,131.292755 31.381239,128.221268 32.323456,124.922417 
	C33.669754,123.115738 34.785149,121.536415 36.158470,119.821121 
	C36.946320,119.128456 37.476238,118.571770 38.304199,117.898834 
	C39.735016,117.185661 40.867794,116.588722 42.349552,115.986465 
	C43.799118,115.643700 44.899704,115.306244 46.438595,114.984543 
	C48.921852,114.940552 50.966801,114.880798 53.435436,114.875473 
	C65.870613,116.746605 77.882103,118.563316 90.265411,120.546173 
	C94.697777,120.848595 98.758331,120.984886 102.887115,121.497978 
	C102.907204,123.146400 102.859039,124.418015 102.383652,125.698532 
	C99.951477,125.827415 97.946533,125.947411 95.589783,125.974625 
	C94.513405,125.879059 93.788849,125.876289 92.723808,125.659805 
	C89.585014,125.092461 86.778069,124.796021 83.989952,124.374840 
	C74.324005,122.914688 64.664619,121.411194 54.702728,119.768234 
	C53.287666,119.569740 52.172611,119.527191 50.701149,119.390778 
	C48.902241,119.551971 47.459743,119.807037 45.644348,120.032394 
	C42.766552,121.632004 40.261642,123.261299 37.477150,125.114532 
	C32.999680,133.632797 33.684521,142.399887 34.964928,151.127457 
	C35.895508,157.470535 38.426701,158.845291 45.470711,157.314514 
	C48.023914,156.625534 50.193432,155.991913 52.725864,155.267365 
	C56.393787,154.098633 59.698799,153.020798 63.380920,151.962387 
	C66.863121,151.071411 69.968208,150.161011 73.491325,149.227234 
	C81.959076,148.186096 90.008804,147.168335 98.405685,146.283478 
	C99.481178,146.332611 100.209526,146.248840 101.180031,146.308304 
	C101.954765,146.603607 102.487343,146.755692 103.012405,147.191254 
	C103.057655,147.656265 103.110420,147.837814 103.101486,148.386993 
	C102.971268,149.494232 102.902756,150.233810 102.377357,150.975037 
	C86.369255,150.449036 71.446213,153.451431 56.588692,158.996231 
	C53.451939,160.302505 50.698341,161.587799 47.944740,162.873077 
	C44.611504,162.905014 41.278263,162.936966 37.392151,162.621109 
	C34.612385,159.828323 32.385502,157.383347 30.158615,154.938385 
	C30.093443,153.552338 30.028273,152.166306 29.884649,150.370056 
	C29.831949,146.270828 29.857700,142.581772 29.814014,138.435165 
z"/>
<path fill="#E01717" opacity="1.000000" stroke="none" 
	d="
M48.334427,162.928528 
	C50.698341,161.587799 53.451939,160.302505 56.841022,159.262421 
	C64.926918,162.952774 72.860504,163.274033 80.772408,162.468628 
	C88.166618,161.715942 95.482277,160.191620 102.900925,159.440430 
	C102.921806,161.918243 102.874268,163.962540 102.438339,166.026733 
	C91.004456,168.448776 80.024384,171.361481 68.520111,169.128983 
	C67.061134,168.845856 65.371330,169.752167 63.788467,170.107422 
	C60.624123,168.344208 57.514252,166.471298 54.273449,164.862061 
	C52.540169,164.001419 50.581215,163.595261 48.334427,162.928528 
z"/>
<path fill="#DB1111" opacity="1.000000" stroke="none" 
	d="
M64.017746,170.372513 
	C65.371330,169.752167 67.061134,168.845856 68.520111,169.128983 
	C80.024384,171.361481 91.004456,168.448776 102.507401,166.452454 
	C103.023926,168.588303 103.083023,170.318344 103.054489,172.065002 
	C102.966850,172.081619 102.803558,172.153458 102.803558,172.153458 
	C95.019791,173.377823 87.236031,174.602203 79.059357,176.017181 
	C73.859978,174.351059 69.053497,172.494324 64.017746,170.372513 
z"/>
<path fill="#E01717" opacity="1.000000" stroke="none" 
	d="
M30.109015,155.322220 
	C32.385502,157.383347 34.612385,159.828323 36.938568,162.587677 
	C32.528370,162.620728 30.376455,160.053085 30.109015,155.322220 
z"/>
<path fill="#F35631" opacity="1.000000" stroke="none" 
	d="
M46.000290,114.968781 
	C44.899704,115.306244 43.799118,115.643700 42.290913,115.646622 
	C41.582031,114.727478 41.403248,114.021141 40.961243,113.576393 
	C33.640709,106.210457 30.000048,97.050728 28.305103,87.054619 
	C27.509504,82.362503 27.349295,77.562660 26.901142,72.811638 
	C27.170015,71.749054 27.438889,70.686462 27.780392,69.300644 
	C34.336472,54.542419 44.427685,43.152081 57.868652,34.265938 
	C59.662895,34.967731 60.876396,35.502144 61.954483,36.255051 
	C61.508904,36.882420 61.198742,37.291302 60.558292,37.826607 
	C54.533443,42.984673 48.838882,48.016315 42.793007,53.091949 
	C41.577797,53.846516 40.527607,54.417995 39.877739,55.288376 
	C28.930861,69.949684 29.203798,92.345955 40.390526,106.910896 
	C42.381874,109.503593 44.136410,112.278183 46.000290,114.968781 
z"/>
<path fill="#F25032" opacity="1.000000" stroke="none" 
	d="
M62.089897,36.036560 
	C60.876396,35.502144 59.662895,34.967731 58.216103,34.201477 
	C60.236713,32.517502 62.490623,31.065365 64.918869,29.321558 
	C68.238312,27.906790 71.383415,26.783688 74.811852,25.456173 
	C75.520248,25.197565 75.945312,25.143373 76.692070,25.097740 
	C77.015549,26.204920 77.017326,27.303541 76.773270,29.036007 
	C71.714920,31.792086 66.902405,33.914318 62.089897,36.036560 
z"/>
<path fill="#F7896D" opacity="1.000000" stroke="none" 
	d="
M61.954483,36.255047 
	C66.902405,33.914318 71.714920,31.792086 76.781860,29.448936 
	C78.078217,29.115049 79.120125,29.002077 80.754929,29.199423 
	C83.815704,30.324862 86.229279,31.479630 88.762718,31.884756 
	C94.120338,32.741493 96.894356,35.328262 95.796387,41.233223 
	C94.393188,42.313107 93.193695,43.155865 91.595398,43.999039 
	C90.133064,43.997673 89.069550,43.995899 87.824234,43.702309 
	C79.427742,37.072674 70.453346,36.664196 60.991940,39.615089 
	C60.952374,38.722252 60.920475,38.211216 60.888577,37.700184 
	C61.198742,37.291302 61.508904,36.882420 61.954483,36.255047 
z"/>
<path fill="#F6806B" opacity="1.000000" stroke="none" 
	d="
M96.000084,40.996101 
	C96.894356,35.328262 94.120338,32.741493 88.762718,31.884756 
	C86.229279,31.479630 83.815704,30.324862 81.147583,29.182693 
	C87.947311,27.882101 94.947266,26.908556 102.397881,25.912289 
	C102.920799,26.987505 102.993065,28.085445 103.061829,30.009212 
	C103.090408,32.228493 103.122490,33.621941 103.105255,35.440636 
	C102.987541,37.578476 102.919136,39.291069 102.423340,41.002846 
	C99.997330,41.000053 97.998711,40.998077 96.000084,40.996101 
z"/>
<path fill="#F24D2F" opacity="1.000000" stroke="none" 
	d="
M26.667923,73.090500 
	C27.349295,77.562660 27.509504,82.362503 28.305103,87.054619 
	C30.000048,97.050728 33.640709,106.210457 40.961243,113.576393 
	C41.403248,114.021141 41.582031,114.727478 41.941933,115.651939 
	C40.867794,116.588722 39.735016,117.185661 38.158005,117.589996 
	C33.467094,109.420372 29.262217,101.420479 24.922287,93.494522 
	C24.362917,92.472954 23.103601,91.834663 22.168524,91.018822 
	C22.420103,88.935699 22.671684,86.852585 22.885521,84.372726 
	C24.043419,80.440453 25.239063,76.904900 26.667923,73.090500 
z"/>
<path fill="#F1452E" opacity="1.000000" stroke="none" 
	d="
M22.108418,91.437500 
	C23.103601,91.834663 24.362917,92.472954 24.922287,93.494522 
	C29.262217,101.420479 33.467094,109.420372 37.859962,117.706238 
	C37.476238,118.571770 36.946320,119.128456 35.827751,119.770065 
	C32.118176,116.142159 29.043938,112.388519 25.852554,108.737289 
	C24.633150,107.342163 23.145554,106.181450 21.780174,104.913918 
	C21.665539,104.104713 21.550905,103.295509 21.246073,102.243240 
	C21.386686,98.618835 21.717499,95.237503 22.108418,91.437500 
z"/>
<path fill="#F03B2C" opacity="1.000000" stroke="none" 
	d="
M21.579796,105.217346 
	C23.145554,106.181450 24.633150,107.342163 25.852554,108.737289 
	C29.043938,112.388519 32.118176,116.142159 35.569824,119.906036 
	C34.785149,121.536415 33.669754,123.115738 32.099289,124.651405 
	C29.112083,122.741234 26.579950,120.874710 24.047819,119.008186 
	C23.762497,118.505066 23.477175,118.001938 23.053289,117.244064 
	C22.402956,113.166481 21.891188,109.343628 21.579796,105.217346 
z"/>
<path fill="#EF302A" opacity="1.000000" stroke="none" 
	d="
M24.044758,119.413925 
	C26.579950,120.874710 29.112083,122.741234 31.868382,124.878761 
	C31.381239,128.221268 30.669931,131.292755 29.870754,134.765442 
	C28.596199,133.307739 27.409510,131.448853 26.060928,129.289948 
	C25.279921,125.933182 24.660807,122.876427 24.044758,119.413925 
z"/>
<path fill="#925D07" opacity="1.000000" stroke="none" 
	d="
M150.584534,86.214783 
	C152.399704,86.183273 153.790955,86.226357 155.595093,86.198502 
	C157.398422,86.165550 158.788879,86.203537 160.592697,86.176865 
	C162.388580,86.153465 163.771088,86.194717 165.565521,86.179764 
	C170.908752,86.013527 172.105621,89.113670 172.779144,93.319252 
	C178.827057,131.083694 155.025085,166.837036 117.859764,175.338318 
	C113.360916,176.367401 108.632347,176.392242 103.577164,176.894226 
	C103.071999,175.583130 102.999924,174.260315 102.865707,172.545471 
	C102.803558,172.153458 102.966850,172.081619 103.369843,172.077774 
	C104.185036,172.003021 104.597221,171.932114 105.444557,171.921188 
	C119.182373,171.507004 131.300171,167.678116 142.097229,159.174988 
	C145.653000,155.883347 148.919754,152.708176 152.483414,149.346191 
	C154.571609,146.577026 156.362915,143.994659 158.432877,141.189514 
	C160.472244,137.310928 162.232925,133.655151 164.227264,129.724060 
	C169.179092,117.314316 170.285431,104.866196 167.467194,91.771103 
	C159.466492,91.395737 151.703491,91.347122 143.573410,91.284264 
	C142.474014,91.310478 141.741714,91.350952 140.728455,91.290474 
	C140.048676,91.192314 139.649841,91.195107 138.772812,91.114502 
	C128.087128,91.114281 117.879631,91.197472 107.294640,91.257202 
	C105.671257,91.210831 104.425369,91.187897 103.120483,90.782829 
	C103.649834,89.163864 104.238182,87.927048 105.294342,86.673660 
	C107.840858,86.533272 109.919586,86.409454 112.419540,86.418816 
	C114.893349,86.447296 116.945915,86.342598 119.408340,86.373207 
	C121.528694,86.419693 123.239189,86.330879 125.367851,86.377228 
	C127.525909,86.409981 129.265793,86.307571 131.408173,86.338348 
	C133.209961,86.381195 134.609238,86.290855 136.008530,86.200516 
	C137.389587,86.315453 138.770660,86.430405 140.570892,86.513596 
	C142.116699,86.447716 143.243301,86.413597 144.691101,86.269524 
	C146.728409,86.202827 148.444504,86.246101 150.584534,86.214783 
z"/>
<path fill="#5E5F56" opacity="1.000000" stroke="none" 
	d="
M123.999229,52.880974 
	C125.742149,53.258629 127.485077,53.636280 129.614258,54.002621 
	C131.429230,54.928925 132.857941,55.866543 134.582550,56.922836 
	C136.037857,59.781200 137.197281,62.520885 137.789047,65.550385 
	C136.182892,65.476402 135.144424,65.112617 134.064545,64.416214 
	C132.014923,62.370659 130.006729,60.657722 127.694443,58.726154 
	C125.235657,58.601585 123.080971,58.695644 120.569122,58.822525 
	C118.128189,61.229942 116.044418,63.604530 113.616577,66.004013 
	C112.169014,65.732491 111.065529,65.436081 109.857666,64.769547 
	C110.219818,62.953274 110.686348,61.507126 111.425522,59.907509 
	C112.798538,58.500206 113.898918,57.246365 115.314064,55.915009 
	C116.752197,55.189911 117.875572,54.542328 119.364105,53.888756 
	C121.152588,53.548832 122.575912,53.214905 123.999229,52.880974 
z"/>
<path fill="#F6E874" opacity="1.000000" stroke="none" 
	d="
M134.105942,64.748833 
	C135.144424,65.112617 136.182892,65.476402 137.574738,65.818481 
	C137.291946,72.359009 136.655823,78.921242 136.014114,85.841995 
	C134.609238,86.290855 133.209961,86.381195 131.414032,85.982010 
	C132.046906,78.577927 133.076431,71.663383 134.105942,64.748833 
z"/>
<path fill="#F8EC89" opacity="1.000000" stroke="none" 
	d="
M123.996109,52.498848 
	C122.575912,53.214905 121.152588,53.548832 119.361313,53.508507 
	C116.610695,44.562241 110.828362,38.962097 103.154572,35.015388 
	C103.122490,33.621941 103.090408,32.228493 103.108612,30.419025 
	C112.097069,31.817560 122.407166,42.760891 123.996109,52.498848 
z"/>
<path fill="#F46732" opacity="1.000000" stroke="none" 
	d="
M89.893593,120.380035 
	C77.882103,118.563316 65.870613,116.746605 53.363815,114.551918 
	C51.758205,113.020752 50.627735,111.886208 49.541073,110.711151 
	C44.770893,105.552933 39.531487,100.669052 39.385742,92.988571 
	C40.506191,92.997032 41.253399,93.001419 42.061371,93.343491 
	C44.396572,96.241188 46.762127,98.726555 48.930523,101.373428 
	C61.968273,117.288109 82.678993,119.484322 98.886948,106.699677 
	C99.976311,105.840393 101.518654,105.555397 102.914108,105.444031 
	C102.932312,108.257980 102.886711,110.631195 102.482910,113.020264 
	C98.047668,115.484085 93.970627,117.932060 89.893593,120.380035 
z"/>
<path fill="#E71F1F" opacity="1.000000" stroke="none" 
	d="
M102.832504,159.006897 
	C95.482277,160.191620 88.166618,161.715942 80.772408,162.468628 
	C72.860504,163.274033 64.926918,162.952774 57.224178,159.241425 
	C71.446213,153.451431 86.369255,150.449036 102.449577,151.417053 
	C102.929962,154.240585 102.881233,156.623734 102.832504,159.006897 
z"/>
<path fill="#AAAAA2" opacity="1.000000" stroke="none" 
	d="
M45.087029,157.369858 
	C38.426701,158.845291 35.895508,157.470535 34.964928,151.127457 
	C33.684521,142.399887 32.999680,133.632797 37.842728,125.182343 
	C43.395683,127.008705 44.498585,123.220100 46.017242,120.062096 
	C47.459743,119.807037 48.902241,119.551971 50.700607,119.742348 
	C51.037521,121.124886 51.018566,122.061989 50.977093,123.310097 
	C50.923561,124.034523 50.892544,124.447945 50.512951,124.964508 
	C46.065556,126.510910 44.607368,129.189453 44.868351,133.684998 
	C45.325386,141.557648 45.053516,149.472626 45.087029,157.369858 
z"/>
<path fill="#FAFAFA" opacity="1.000000" stroke="none" 
	d="
M98.058525,146.150574 
	C90.008804,147.168335 81.959076,148.186096 73.473991,148.744507 
	C73.028374,144.320053 72.746300,140.327469 73.143509,136.403625 
	C73.299370,134.863968 74.976372,133.478302 75.970200,132.471298 
	C76.082428,135.849777 76.185089,138.779449 76.287750,141.709137 
	C76.961945,141.739136 77.636147,141.769135 78.310341,141.799133 
	C81.278557,138.752289 79.508171,134.614578 80.005096,130.756683 
	C80.012604,130.516296 80.020233,130.035339 80.466614,130.024780 
	C86.271454,131.013977 91.629913,132.013702 96.986046,133.468643 
	C97.341995,137.999435 97.700256,142.074997 98.058525,146.150574 
z"/>
<path fill="#EAEBE7" opacity="1.000000" stroke="none" 
	d="
M63.003807,151.942963 
	C59.698799,153.020798 56.393787,154.098633 52.428246,154.931198 
	C51.540730,145.157028 51.313744,135.628113 51.457230,126.078445 
	C54.229061,127.358231 56.630421,128.658768 59.021095,130.415436 
	C59.010773,132.702606 59.097599,134.538666 58.991776,136.363556 
	C58.821815,139.294556 60.356838,140.209167 62.989765,140.448761 
	C62.998104,144.587173 63.000957,148.265060 63.003807,151.942963 
z"/>
<path fill="#F45C31" opacity="1.000000" stroke="none" 
	d="
M39.012508,92.984489 
	C39.531487,100.669052 44.770893,105.552933 49.541073,110.711151 
	C50.627735,111.886208 51.758205,113.020752 52.940132,114.497498 
	C50.966801,114.880798 48.921852,114.940552 46.438595,114.984543 
	C44.136410,112.278183 42.381874,109.503593 40.390526,106.910896 
	C29.203798,92.345955 28.930861,69.949684 39.877739,55.288376 
	C40.527607,54.417995 41.577797,53.846516 42.736076,53.405685 
	C42.964657,54.095661 42.898857,54.515900 42.568642,55.134300 
	C41.183640,57.553089 40.063042,59.773716 38.709038,62.262085 
	C37.944786,64.658623 37.413937,66.787407 36.662155,69.220413 
	C35.997776,72.672173 35.554325,75.819717 35.141022,79.347076 
	C35.464008,81.479309 35.756855,83.231735 36.183617,85.312057 
	C37.215858,88.088120 38.114182,90.536308 39.012508,92.984489 
z"/>
<path fill="#DFDFDF" opacity="1.000000" stroke="none" 
	d="
M96.988365,133.013428 
	C91.629913,132.013702 86.271454,131.013977 80.457260,129.678741 
	C79.992851,128.882111 79.984177,128.420990 80.097565,127.608063 
	C81.842491,127.003677 83.458145,126.679840 85.089867,126.514732 
	C87.742477,126.246361 90.405602,126.081863 93.064285,125.873520 
	C93.788849,125.876289 94.513405,125.879059 95.614594,126.334946 
	C99.475258,133.939346 100.583916,126.342972 102.810883,125.689636 
	C102.859039,124.418015 102.907204,123.146400 102.960144,121.048630 
	C102.923660,117.816460 102.882385,115.410439 102.841110,113.004417 
	C102.886711,110.631195 102.932312,108.257980 102.983597,105.010757 
	C103.038383,102.081345 103.087479,100.025925 103.505417,97.958832 
	C105.101219,97.998764 106.328178,98.050369 107.618210,98.559875 
	C107.669006,108.685890 107.656731,118.354012 107.268250,128.021454 
	C104.935326,129.024887 102.978622,130.028992 101.010536,131.351974 
	C100.976990,132.095932 100.954834,132.521042 100.538574,132.958939 
	C99.092438,132.985641 98.040398,132.999527 96.988365,133.013428 
z"/>
<path fill="#F4F5F3" opacity="1.000000" stroke="none" 
	d="
M63.380920,151.962387 
	C63.000957,148.265060 62.998104,144.587173 62.993622,139.995880 
	C62.991863,136.052551 62.991741,133.022614 63.011284,129.681458 
	C63.045761,128.954788 63.060574,128.539322 63.489407,128.095016 
	C65.980881,128.376221 68.092400,128.545197 70.126122,129.036331 
	C72.126076,129.519302 74.047089,130.329208 75.993690,131.252426 
	C75.976639,131.680298 75.968628,131.851410 75.960625,132.022507 
	C74.976372,133.478302 73.299370,134.863968 73.143509,136.403625 
	C72.746300,140.327469 73.028374,144.320053 73.055962,148.767883 
	C69.968208,150.161011 66.863121,151.071411 63.380920,151.962387 
z"/>
<path fill="#C4C5BF" opacity="1.000000" stroke="none" 
	d="
M51.086758,126.099197 
	C51.313744,135.628113 51.540730,145.157028 52.065334,155.022125 
	C50.193432,155.991913 48.023914,156.625534 45.470711,157.314514 
	C45.053516,149.472626 45.325386,141.557648 44.868351,133.684998 
	C44.607368,129.189453 46.065556,126.510910 50.573174,125.273949 
	C51.016903,125.686562 51.051830,125.892876 51.086758,126.099197 
z"/>
<path fill="#C4BEBD" opacity="1.000000" stroke="none" 
	d="
M92.723808,125.659805 
	C90.405602,126.081863 87.742477,126.246361 85.089867,126.514732 
	C83.458145,126.679840 81.842491,127.003677 79.711082,127.616821 
	C75.259964,126.855370 71.364418,125.460136 67.347733,124.768501 
	C66.048340,124.544762 64.431046,126.167305 62.584267,126.949982 
	C61.134472,125.978767 60.059582,125.002876 58.893307,123.698006 
	C57.535526,122.220741 56.269131,121.072456 55.002731,119.924179 
	C64.664619,121.411194 74.324005,122.914688 83.989952,124.374840 
	C86.778069,124.796021 89.585014,125.092461 92.723808,125.659805 
z"/>
<path fill="#F5F4F2" opacity="1.000000" stroke="none" 
	d="
M102.900925,159.440430 
	C102.881233,156.623734 102.929962,154.240585 102.906464,151.415405 
	C102.902756,150.233810 102.971268,149.494232 103.497063,148.377365 
	C105.273087,147.972198 106.591835,147.944305 107.938309,148.392181 
	C108.022110,156.666306 108.911240,164.571793 105.009415,171.861221 
	C104.597221,171.932114 104.185036,172.003021 103.457481,172.061157 
	C103.083023,170.318344 103.023926,168.588303 102.895775,166.432556 
	C102.874268,163.962540 102.921806,161.918243 102.900925,159.440430 
z"/>
<path fill="#EBE0E0" opacity="1.000000" stroke="none" 
	d="
M107.910568,147.916412 
	C106.591835,147.944305 105.273087,147.972198 103.558769,148.009735 
	C103.110420,147.837814 103.057655,147.656265 102.982658,146.801682 
	C102.975159,145.085953 102.989891,144.043289 103.010849,142.542572 
	C102.195435,138.428986 104.966698,134.124817 101.021927,131.033112 
	C102.978622,130.028992 104.935326,129.024887 107.442787,128.164459 
	C107.993546,128.308151 108.068787,128.753235 108.038071,129.236145 
	C107.975098,135.784836 107.942833,141.850616 107.910568,147.916412 
z"/>
<path fill="#F35C30" opacity="1.000000" stroke="none" 
	d="
M102.482910,113.020264 
	C102.882385,115.410439 102.923660,117.816460 102.891907,120.671829 
	C98.758331,120.984886 94.697777,120.848595 90.265411,120.546165 
	C93.970627,117.932060 98.047668,115.484085 102.482910,113.020264 
z"/>
<path fill="#EDEEED" opacity="1.000000" stroke="none" 
	d="
M96.986046,133.468628 
	C98.040398,132.999527 99.092438,132.985641 100.560089,133.418518 
	C100.983391,136.910202 100.991081,139.955093 100.996094,143.395706 
	C100.974892,144.582626 100.956383,145.373856 100.937866,146.165070 
	C100.209526,146.248840 99.481178,146.332611 98.405685,146.283478 
	C97.700256,142.074997 97.341995,137.999435 96.986046,133.468628 
z"/>
<path fill="#A5968F" opacity="1.000000" stroke="none" 
	d="
M45.644348,120.032394 
	C44.498585,123.220100 43.395683,127.008705 38.122311,124.958405 
	C40.261642,123.261299 42.766552,121.632004 45.644348,120.032394 
z"/>
<path fill="#C4C5BF" opacity="1.000000" stroke="none" 
	d="
M54.702728,119.768234 
	C56.269131,121.072456 57.535526,122.220741 58.489082,123.686226 
	C55.784035,123.668648 53.391823,123.333870 50.999611,122.999084 
	C51.018566,122.061989 51.037521,121.124886 51.057014,119.836212 
	C52.172611,119.527191 53.287666,119.569740 54.702728,119.768234 
z"/>
<path fill="#C4BEBD" opacity="1.000000" stroke="none" 
	d="
M102.383652,125.698532 
	C100.583916,126.342972 99.475258,133.939346 95.966408,126.427742 
	C97.946533,125.947411 99.951477,125.827415 102.383652,125.698532 
z"/>
<path fill="#FAFAFA" opacity="1.000000" stroke="none" 
	d="
M101.180031,146.308304 
	C100.956383,145.373856 100.974892,144.582626 101.330383,143.395721 
	C102.113113,143.000214 102.558868,143.000412 103.004616,143.000610 
	C102.989891,144.043289 102.975159,145.085953 102.990173,146.518188 
	C102.487343,146.755692 101.954765,146.603607 101.180031,146.308304 
z"/>
<path fill="#F7906D" opacity="1.000000" stroke="none" 
	d="
M42.833054,54.936134 
	C42.898857,54.515900 42.964657,54.095661 43.087387,53.361694 
	C48.838882,48.016315 54.533443,42.984673 60.558292,37.826607 
	C60.920475,38.211216 60.952374,38.722252 60.769543,39.865234 
	C59.317165,41.866245 58.079521,43.235313 56.841873,44.604378 
	C57.172909,44.901279 57.503944,45.198177 57.834980,45.495079 
	C59.872910,44.991367 61.910843,44.487656 63.963692,44.356960 
	C63.991058,45.474316 64.003502,46.218658 63.835182,47.259777 
	C59.435970,50.370831 55.217525,53.185108 50.576836,55.999477 
	C47.714081,55.645092 45.273567,55.290615 42.833054,54.936134 
z"/>
<path fill="#F79574" opacity="1.000000" stroke="none" 
	d="
M63.948772,43.983948 
	C61.910843,44.487656 59.872910,44.991367 57.834980,45.495079 
	C57.503944,45.198177 57.172909,44.901279 56.841873,44.604378 
	C58.079521,43.235313 59.317165,41.866245 60.777210,40.247040 
	C70.453346,36.664196 79.427742,37.072674 87.676811,43.964554 
	C87.109169,45.030285 86.507172,45.541958 85.548294,45.985291 
	C80.102158,44.923950 75.012909,43.930954 69.527710,42.935089 
	C67.404099,43.282791 65.676437,43.633369 63.948772,43.983948 
z"/>
<path fill="#F7865E" opacity="1.000000" stroke="none" 
	d="
M95.796387,41.233223 
	C97.998711,40.998077 99.997330,41.000053 102.481689,41.336357 
	C103.031235,42.117374 103.095047,42.564060 103.109451,43.458580 
	C103.097534,46.613342 103.135033,49.320271 103.098274,52.275192 
	C102.968170,52.686489 102.912323,52.849785 102.503098,53.026287 
	C100.085175,54.368042 98.020630,55.696587 95.731003,56.821747 
	C94.684616,55.744205 93.863319,54.870041 93.022316,53.752365 
	C93.002602,53.508850 92.957878,53.022282 93.286240,52.962593 
	C93.895424,51.594982 94.627541,50.181065 94.351074,49.004040 
	C93.938591,47.247925 92.815163,45.658798 91.994202,43.998627 
	C93.193695,43.155865 94.393188,42.313107 95.796387,41.233223 
z"/>
<path fill="#F79169" opacity="1.000000" stroke="none" 
	d="
M91.595398,43.999039 
	C92.815163,45.658798 93.938591,47.247925 94.351074,49.004040 
	C94.627541,50.181065 93.895424,51.594982 93.005325,52.785378 
	C90.232422,50.463108 88.068802,48.258369 85.905174,46.053635 
	C86.507172,45.541958 87.109169,45.030285 87.858597,44.256371 
	C89.069550,43.995899 90.133064,43.997673 91.595398,43.999039 
z"/>
<path fill="#F9EE95" opacity="1.000000" stroke="none" 
	d="
M103.158867,43.010746 
	C103.095047,42.564060 103.031235,42.117374 102.909073,41.337177 
	C102.919136,39.291069 102.987541,37.578476 103.105255,35.440636 
	C110.828362,38.962097 116.610695,44.562241 118.996147,53.514496 
	C117.875572,54.542328 116.752197,55.189911 115.253983,55.571915 
	C111.673149,50.539829 109.577820,44.714626 103.158867,43.010746 
z"/>
<path fill="#FEFEFE" opacity="1.000000" stroke="none" 
	d="
M107.938301,148.392166 
	C107.942833,141.850616 107.975098,135.784836 108.502304,129.221008 
	C118.974434,128.729218 128.951630,128.735474 138.957199,129.176514 
	C139.014221,131.059311 139.042877,132.507339 139.049805,134.426331 
	C139.021423,141.138458 138.797394,147.391464 139.136963,153.613708 
	C139.242584,155.549118 140.874832,157.401215 141.808197,159.291443 
	C131.300171,167.678116 119.182373,171.507004 105.444557,171.921188 
	C108.911240,164.571793 108.022110,156.666306 107.938301,148.392166 
z"/>
<path fill="#303638" opacity="1.000000" stroke="none" 
	d="
M138.928833,128.741730 
	C128.951630,128.735474 118.974434,128.729218 108.533012,128.738098 
	C108.068787,128.753235 107.993546,128.308151 107.819000,128.165146 
	C107.656731,118.354012 107.669006,108.685890 107.738564,98.142715 
	C107.754608,95.271996 107.713371,93.276321 107.672134,91.280655 
	C117.879631,91.197472 128.087128,91.114281 138.780594,91.347504 
	C139.266556,91.663902 139.419601,92.106224 139.330597,92.559937 
	C139.299332,99.685051 139.357071,106.356453 139.334015,113.485832 
	C139.145096,118.876457 139.036972,123.809097 138.928833,128.741730 
z"/>
<path fill="#ECEBEB" opacity="1.000000" stroke="none" 
	d="
M142.097229,159.174988 
	C140.874832,157.401215 139.242584,155.549118 139.136963,153.613708 
	C138.797394,147.391464 139.021423,141.138458 139.386993,134.501282 
	C140.899323,134.564972 142.052750,135.024719 143.946777,135.779663 
	C143.946777,127.746384 143.946777,120.351311 143.951447,112.490509 
	C143.970688,105.393738 143.985260,98.762695 144.438660,92.053017 
	C147.251511,92.008072 149.625549,92.041756 151.999756,92.539375 
	C152.062119,111.846535 152.124313,130.689774 152.186508,149.533005 
	C148.919754,152.708176 145.653000,155.883347 142.097229,159.174988 
z"/>
<path fill="#F77C36" opacity="1.000000" stroke="none" 
	d="
M104.826538,86.690231 
	C104.238182,87.927048 103.649834,89.163864 103.062096,91.186028 
	C102.973618,93.321426 102.884514,94.671486 102.469757,96.085159 
	C101.249924,96.855202 100.113968,97.395714 99.498138,98.293144 
	C91.273857,110.278107 70.908302,112.784569 60.274483,104.451294 
	C55.886837,101.012886 52.073822,96.841217 48.042385,92.687103 
	C48.392811,91.581070 48.700298,90.790977 49.356606,90.055878 
	C53.164074,92.600868 56.902103,94.785538 60.024769,97.642731 
	C67.113167,104.128494 74.937370,106.586823 84.136032,103.090309 
	C93.022758,99.712357 98.578903,93.561012 100.093102,83.906876 
	C100.415894,81.848801 101.881226,79.969933 102.879837,78.439743 
	C103.596489,81.273293 104.253510,83.675598 104.911972,86.234055 
	C104.913429,86.390221 104.826546,86.690231 104.826538,86.690231 
z"/>
<path fill="#E4E3E3" opacity="1.000000" stroke="none" 
	d="
M152.483414,149.346191 
	C152.124313,130.689774 152.062119,111.846535 152.414566,92.494934 
	C154.218994,92.020203 155.608780,92.053848 156.999237,92.550659 
	C156.999939,105.065903 156.904602,117.119148 157.053040,129.169388 
	C157.103363,133.254257 157.769485,137.331558 158.154205,141.412308 
	C156.362915,143.994659 154.571609,146.577026 152.483414,149.346191 
z"/>
<path fill="#DEDDDD" opacity="1.000000" stroke="none" 
	d="
M158.432877,141.189514 
	C157.769485,137.331558 157.103363,133.254257 157.053040,129.169388 
	C156.904602,117.119148 156.999939,105.065903 157.413879,92.511002 
	C159.215134,92.036247 160.602417,92.064323 161.993652,92.555260 
	C161.999557,103.438400 161.902328,113.860512 162.093124,124.277351 
	C162.128265,126.195648 163.330231,128.092575 163.993622,129.999374 
	C162.232925,133.655151 160.472244,137.310928 158.432877,141.189514 
z"/>
<path fill="#D6D4D3" opacity="1.000000" stroke="none" 
	d="
M164.227249,129.724060 
	C163.330231,128.092575 162.128265,126.195648 162.093124,124.277351 
	C161.902328,113.860512 161.999557,103.438400 162.402161,92.519157 
	C164.439438,92.046089 166.072159,92.071983 167.704895,92.097870 
	C170.285431,104.866196 169.179092,117.314316 164.227249,129.724060 
z"/>
<path fill="#F7EC8B" opacity="1.000000" stroke="none" 
	d="
M120.926285,58.789703 
	C123.080971,58.695644 125.235657,58.601585 127.694748,59.198105 
	C128.292236,68.824677 128.100739,77.704597 124.949684,86.242058 
	C123.239189,86.330879 121.528694,86.419693 119.408310,86.008911 
	C121.043953,76.703995 123.400337,67.921112 120.926285,58.789703 
z"/>
<path fill="#F8EE99" opacity="1.000000" stroke="none" 
	d="
M120.569122,58.822525 
	C123.400337,67.921112 121.043953,76.703995 118.998459,85.873611 
	C116.945915,86.342598 114.893349,86.447296 112.424080,86.069641 
	C113.251137,81.122322 114.816963,76.711868 115.585899,72.166588 
	C115.910034,70.250580 114.553314,68.050217 113.960655,65.979118 
	C116.044418,63.604530 118.128189,61.229942 120.569122,58.822525 
z"/>
<path fill="#F7EA7F" opacity="1.000000" stroke="none" 
	d="
M125.367851,86.377228 
	C128.100739,77.704597 128.292236,68.824677 127.998848,59.416733 
	C130.006729,60.657722 132.014923,62.370659 134.064545,64.416214 
	C133.076431,71.663383 132.046906,78.577927 131.011536,85.848816 
	C129.265793,86.307571 127.525909,86.409981 125.367851,86.377228 
z"/>
<path fill="#F9F0A5" opacity="1.000000" stroke="none" 
	d="
M113.616577,66.004013 
	C114.553314,68.050217 115.910034,70.250580 115.585899,72.166588 
	C114.816963,76.711868 113.251137,81.122322 112.002846,85.936447 
	C109.919586,86.409454 107.840858,86.533272 105.294342,86.673660 
	C104.826546,86.690231 104.913429,86.390221 104.993301,85.872406 
	C108.256683,78.992081 111.097412,72.546677 109.962044,65.139671 
	C111.065529,65.436081 112.169014,65.732491 113.616577,66.004013 
z"/>
<path fill="#CFCFCF" opacity="1.000000" stroke="none" 
	d="
M143.999817,92.131645 
	C143.985260,98.762695 143.970688,105.393738 143.575424,112.505165 
	C141.934753,112.999649 140.674789,113.013748 139.414810,113.027855 
	C139.357071,106.356453 139.299332,99.685051 139.559296,92.554832 
	C140.254471,91.861153 140.631927,91.626282 141.009399,91.391418 
	C141.741714,91.350952 142.474014,91.310478 143.577148,91.493362 
	C143.947968,91.716705 143.999817,92.131645 143.999817,92.131645 
z"/>
<path fill="#BCBCBB" opacity="1.000000" stroke="none" 
	d="
M102.795418,96.021545 
	C102.884514,94.671486 102.973618,93.321426 103.121094,91.568169 
	C104.425369,91.187897 105.671257,91.210831 107.294647,91.257202 
	C107.713371,93.276321 107.754608,95.271996 107.675491,97.684822 
	C106.328178,98.050369 105.101219,97.998764 103.427841,97.638641 
	C102.919418,96.893929 102.857414,96.457741 102.795418,96.021545 
z"/>
<path fill="#BBB3A0" opacity="1.000000" stroke="none" 
	d="
M144.438660,92.053017 
	C143.999817,92.131645 143.947968,91.716705 143.944229,91.507614 
	C151.703491,91.347122 159.466492,91.395737 167.467194,91.771111 
	C166.072159,92.071983 164.439438,92.046089 162.398193,92.056305 
	C160.602417,92.064323 159.215134,92.036247 157.413208,92.047836 
	C155.608780,92.053848 154.218994,92.020203 152.414398,92.031006 
	C149.625549,92.041756 147.251511,92.008072 144.438660,92.053017 
z"/>
<path fill="#BBB3A0" opacity="1.000000" stroke="none" 
	d="
M140.728455,91.290474 
	C140.631927,91.626282 140.254471,91.861153 139.648300,92.101120 
	C139.419601,92.106224 139.266556,91.663902 139.258774,91.430901 
	C139.649841,91.195107 140.048676,91.192314 140.728455,91.290474 
z"/>
<path fill="#FBF4B0" opacity="1.000000" stroke="none" 
	d="
M109.857666,64.769547 
	C111.097412,72.546677 108.256683,78.992081 104.991844,85.716240 
	C104.253510,83.675598 103.596489,81.273293 102.939186,78.068726 
	C102.904152,76.517479 102.869392,75.768501 102.895554,74.571648 
	C102.915619,71.420502 102.874779,68.717224 102.891823,65.553207 
	C102.918625,61.065998 102.887550,57.039539 102.856476,53.013077 
	C102.912323,52.849785 102.968170,52.686489 103.427071,52.336037 
	C106.271042,54.786247 108.711960,57.423611 111.152878,60.060978 
	C110.686348,61.507126 110.219818,62.953274 109.857666,64.769547 
z"/>
<path fill="#F8EFA2" opacity="1.000000" stroke="none" 
	d="
M111.425522,59.907509 
	C108.711960,57.423611 106.271042,54.786247 103.501328,52.088039 
	C103.135033,49.320271 103.097534,46.613342 103.109451,43.458580 
	C109.577820,44.714626 111.673149,50.539829 114.939224,55.649433 
	C113.898918,57.246365 112.798538,58.500206 111.425522,59.907509 
z"/>
<path fill="#F67234" opacity="1.000000" stroke="none" 
	d="
M102.469757,96.085159 
	C102.857414,96.457741 102.919418,96.893929 103.058998,97.650314 
	C103.087479,100.025925 103.038383,102.081345 102.919800,104.570023 
	C101.518654,105.555397 99.976311,105.840393 98.886948,106.699677 
	C82.678993,119.484322 61.968273,117.288109 48.930523,101.373428 
	C46.762127,98.726555 44.396572,96.241188 42.489731,93.341553 
	C44.571377,93.002289 46.285416,93.002670 47.999451,93.003052 
	C52.073822,96.841217 55.886837,101.012886 60.274483,104.451294 
	C70.908302,112.784569 91.273857,110.278107 99.498138,98.293144 
	C100.113968,97.395714 101.249924,96.855202 102.469757,96.085159 
z"/>
<path fill="#F6753F" opacity="1.000000" stroke="none" 
	d="
M48.042389,92.687103 
	C46.285416,93.002670 44.571377,93.002289 42.428974,93.003853 
	C41.253399,93.001419 40.506191,92.997032 39.385742,92.988571 
	C38.114182,90.536308 37.215858,88.088120 36.562626,85.333740 
	C40.869652,86.352600 44.931587,87.677673 48.997223,89.252258 
	C49.000923,89.501778 49.007782,90.000877 49.007782,90.000877 
	C48.700298,90.790977 48.392811,91.581070 48.042389,92.687103 
z"/>
<path fill="#D0D2CF" opacity="1.000000" stroke="none" 
	d="
M50.977093,123.310104 
	C53.391823,123.333870 55.784035,123.668648 58.580467,124.015205 
	C60.059582,125.002876 61.134472,125.978767 62.610954,127.245163 
	C63.033489,127.731735 63.054436,127.927795 63.075386,128.123856 
	C63.060574,128.539322 63.045761,128.954788 62.614983,129.682770 
	C61.143272,129.983307 60.087528,129.971313 59.031784,129.959320 
	C56.630421,128.658768 54.229061,127.358231 51.457230,126.078445 
	C51.051830,125.892876 51.016903,125.686562 50.921753,125.170807 
	C50.892544,124.447945 50.923561,124.034523 50.977093,123.310104 
z"/>
<path fill="#D7D8D6" opacity="1.000000" stroke="none" 
	d="
M63.489407,128.095016 
	C63.054436,127.927795 63.033489,127.731735 62.985855,127.240494 
	C64.431046,126.167305 66.048340,124.544762 67.347733,124.768501 
	C71.364418,125.460136 75.259964,126.855370 79.589027,127.968628 
	C79.984177,128.420990 79.992851,128.882111 80.010880,129.689285 
	C80.020233,130.035339 80.012604,130.516296 79.605652,130.761200 
	C78.133377,131.002609 77.068054,130.999130 76.002739,130.995651 
	C74.047089,130.329208 72.126076,129.519302 70.126122,129.036331 
	C68.092400,128.545197 65.980881,128.376221 63.489407,128.095016 
z"/>
<path fill="#EBECEB" opacity="1.000000" stroke="none" 
	d="
M75.993690,131.252426 
	C77.068054,130.999130 78.133377,131.002609 79.598137,131.001587 
	C79.508171,134.614578 81.278557,138.752289 78.310341,141.799133 
	C77.636147,141.769135 76.961945,141.739136 76.287750,141.709137 
	C76.185089,138.779449 76.082428,135.849777 75.970200,132.471298 
	C75.968628,131.851410 75.976639,131.680298 75.993690,131.252426 
z"/>
<path fill="#E1E2DF" opacity="1.000000" stroke="none" 
	d="
M59.021095,130.415436 
	C60.087528,129.971313 61.143272,129.983307 62.595322,129.993988 
	C62.991741,133.022614 62.991863,136.052551 62.988129,139.535370 
	C60.356838,140.209167 58.821815,139.294556 58.991776,136.363556 
	C59.097599,134.538666 59.010773,132.702606 59.021095,130.415436 
z"/>
<path fill="#F78D65" opacity="1.000000" stroke="none" 
	d="
M42.568642,55.134300 
	C45.273567,55.290615 47.714081,55.645092 50.586754,56.347794 
	C51.345791,57.797512 51.672668,58.898998 51.789688,60.240711 
	C50.053005,61.653954 48.526188,62.826973 46.611343,63.997192 
	C43.796360,63.327705 41.369404,62.661026 38.942444,61.994343 
	C40.063042,59.773716 41.183640,57.553089 42.568642,55.134300 
z"/>
<path fill="#F7875C" opacity="1.000000" stroke="none" 
	d="
M38.709042,62.262085 
	C41.369404,62.661026 43.796360,63.327705 46.624668,64.363861 
	C47.350388,66.155563 47.674759,67.577782 47.725014,69.152786 
	C46.299812,70.204132 45.148727,71.102692 43.631065,71.987328 
	C41.137360,70.954338 39.010223,69.935265 36.883087,68.916199 
	C37.413937,66.787407 37.944786,64.658623 38.709042,62.262085 
z"/>
<path fill="#F68053" opacity="1.000000" stroke="none" 
	d="
M36.662155,69.220413 
	C39.010223,69.935265 41.137360,70.954338 43.647507,72.369118 
	C44.355183,74.508606 44.679844,76.252388 44.884750,78.250031 
	C44.509495,79.003525 44.253990,79.503143 43.593922,79.982285 
	C40.496529,79.630302 37.803699,79.298782 35.110874,78.967270 
	C35.554325,75.819717 35.997776,72.672173 36.662155,69.220413 
z"/>
<path fill="#F67A47" opacity="1.000000" stroke="none" 
	d="
M35.141022,79.347076 
	C37.803699,79.298782 40.496529,79.630302 43.740849,80.289597 
	C45.862743,83.409157 47.433144,86.200935 49.002022,88.996063 
	C49.000496,88.999420 48.993523,89.002747 48.993523,89.002747 
	C44.931587,87.677673 40.869652,86.352600 36.428711,85.005852 
	C35.756855,83.231735 35.464008,81.479309 35.141022,79.347076 
z"/>
<path fill="#FBFCFB" opacity="1.000000" stroke="none" 
	d="
M103.010849,142.542572 
	C102.558868,143.000412 102.113113,143.000214 101.333069,143.000000 
	C100.991081,139.955093 100.983391,136.910202 100.954185,133.405716 
	C100.954834,132.521042 100.976990,132.095932 101.010536,131.351974 
	C104.966698,134.124817 102.195435,138.428986 103.010849,142.542572 
z"/>
<path fill="#F89666" opacity="1.000000" stroke="none" 
	d="
M51.999550,60.000488 
	C51.672668,58.898998 51.345791,57.797512 51.008995,56.347702 
	C55.217525,53.185108 59.435970,50.370831 64.283386,47.266617 
	C67.313293,46.921005 69.714226,46.865330 72.524666,46.843620 
	C76.652481,48.233326 80.370789,49.589066 83.742172,51.114075 
	C74.263908,54.189804 65.132561,57.096260 55.601067,60.002205 
	C54.133789,60.001289 53.066669,60.000889 51.999550,60.000488 
z"/>
<path fill="#F6795D" opacity="1.000000" stroke="none" 
	d="
M72.115150,46.809654 
	C69.714226,46.865330 67.313293,46.921005 64.464157,46.969841 
	C64.003502,46.218658 63.991058,45.474316 63.963692,44.356960 
	C65.676437,43.633369 67.404099,43.282791 69.616478,43.251595 
	C70.772514,44.650532 71.443832,45.730095 72.115150,46.809654 
z"/>
<path fill="#F46049" opacity="1.000000" stroke="none" 
	d="
M72.524666,46.843620 
	C71.443832,45.730095 70.772514,44.650532 70.012421,43.254463 
	C75.012909,43.930954 80.102158,44.923950 85.548294,45.985291 
	C88.068802,48.258369 90.232422,50.463108 92.676956,52.845062 
	C92.957878,53.022282 93.002602,53.508850 92.613960,53.754494 
	C91.140038,54.007069 90.054756,54.014000 88.720947,53.898132 
	C87.980286,53.519890 87.488152,53.264439 86.837982,52.739914 
	C85.816322,51.962162 84.952705,51.453484 84.089088,50.944801 
	C80.370789,49.589066 76.652481,48.233326 72.524666,46.843620 
z"/>
<path fill="#F7844E" opacity="1.000000" stroke="none" 
	d="
M102.503098,53.026287 
	C102.887550,57.039539 102.918625,61.065998 102.489838,65.549255 
	C100.687088,66.005577 99.344215,66.005104 97.842346,65.721779 
	C96.122665,63.960213 94.561981,62.481495 92.880989,60.748253 
	C92.513344,59.987938 92.265999,59.482151 92.381653,58.976707 
	C93.815132,58.326416 94.885612,57.675774 95.956093,57.025131 
	C98.020630,55.696587 100.085175,54.368042 102.503098,53.026287 
z"/>
<path fill="#F56F49" opacity="1.000000" stroke="none" 
	d="
M95.731003,56.821747 
	C94.885612,57.675774 93.815132,58.326416 92.220932,58.697437 
	C90.787964,56.952187 89.878716,55.486557 88.969475,54.020927 
	C90.054756,54.014000 91.140038,54.007069 92.633675,53.998009 
	C93.863319,54.870041 94.684616,55.744205 95.731003,56.821747 
z"/>
<path fill="#DDDDDD" opacity="1.000000" stroke="none" 
	d="
M139.334015,113.485832 
	C140.674789,113.013748 141.934753,112.999649 143.570755,112.970886 
	C143.946777,120.351311 143.946777,127.746384 143.946777,135.779663 
	C142.052750,135.024719 140.899323,134.564972 139.408722,134.030289 
	C139.042877,132.507339 139.014221,131.059311 138.957199,129.176514 
	C139.036972,123.809097 139.145096,118.876457 139.334015,113.485832 
z"/>
<path fill="#F18336" opacity="1.000000" stroke="none" 
	d="
M49.356606,90.055878 
	C49.007782,90.000877 49.000923,89.501778 48.997223,89.252258 
	C48.993523,89.002747 49.000496,88.999420 49.439331,88.998352 
	C51.919949,89.001602 53.961739,89.005905 56.228081,89.256447 
	C61.089417,92.628555 65.561142,96.047447 70.417755,98.783028 
	C73.988358,100.794243 77.054115,100.185883 77.333633,95.082596 
	C82.915634,97.477303 86.493752,96.919006 88.907570,92.028465 
	C90.868156,88.056152 91.372475,83.365089 92.792641,79.100204 
	C94.969185,81.401733 96.336624,80.123779 97.924667,78.645943 
	C99.404602,77.268723 101.185966,76.215416 102.834641,75.019524 
	C102.869392,75.768501 102.904152,76.517479 102.879547,77.637482 
	C101.881226,79.969933 100.415894,81.848801 100.093102,83.906876 
	C98.578903,93.561012 93.022758,99.712357 84.136032,103.090309 
	C74.937370,106.586823 67.113167,104.128494 60.024769,97.642731 
	C56.902103,94.785538 53.164074,92.600868 49.356606,90.055878 
z"/>
<path fill="#F78840" opacity="1.000000" stroke="none" 
	d="
M102.895546,74.571648 
	C101.185966,76.215416 99.404602,77.268723 97.924667,78.645943 
	C96.336624,80.123779 94.969185,81.401733 92.675949,78.611549 
	C92.261429,77.681702 92.233597,77.347923 92.189133,77.043777 
	C92.172501,77.073402 92.148186,77.122948 92.125748,76.837936 
	C92.097527,76.362434 92.091743,76.171928 92.423874,75.917419 
	C94.508293,72.570488 96.254814,69.287560 98.001343,66.004631 
	C99.344215,66.005104 100.687088,66.005577 102.431953,66.010002 
	C102.874779,68.717224 102.915619,71.420502 102.895546,74.571648 
z"/>
<path fill="#F8935D" opacity="1.000000" stroke="none" 
	d="
M51.789684,60.240711 
	C53.066669,60.000889 54.133789,60.001289 55.619850,60.402611 
	C56.359051,63.201385 56.679314,65.599243 56.716450,68.156082 
	C55.288681,68.877472 54.144035,69.439865 52.628395,70.000076 
	C50.837975,69.665268 49.418549,69.332634 47.999126,69.000000 
	C47.674759,67.577782 47.350388,66.155563 47.012695,64.366669 
	C48.526188,62.826973 50.053005,61.653954 51.789684,60.240711 
z"/>
<path fill="#F88D52" opacity="1.000000" stroke="none" 
	d="
M47.725014,69.152786 
	C49.418549,69.332634 50.837975,69.665268 52.632439,70.405563 
	C53.339291,73.207169 53.671093,75.601105 54.001736,78.329605 
	C53.998905,79.110268 53.997238,79.556358 53.622543,79.939209 
	C50.501183,79.249367 47.752846,78.622765 45.004505,77.996155 
	C44.679844,76.252388 44.355183,74.508606 44.014080,72.383041 
	C45.148727,71.102692 46.299812,70.204132 47.725014,69.152786 
z"/>
<path fill="#F88847" opacity="1.000000" stroke="none" 
	d="
M44.884750,78.250031 
	C47.752846,78.622765 50.501183,79.249367 53.678329,80.284592 
	C55.071964,82.794769 56.036789,84.896317 56.882568,87.252197 
	C56.510193,88.007759 56.256859,88.508980 56.003525,89.010208 
	C53.961739,89.005905 51.919949,89.001602 49.440857,88.994995 
	C47.433144,86.200935 45.862743,83.409157 44.145416,80.310074 
	C44.253990,79.503143 44.509495,79.003525 44.884750,78.250031 
z"/>
<path fill="#F99A5E" opacity="1.000000" stroke="none" 
	d="
M56.999573,67.997093 
	C56.679314,65.599243 56.359051,63.201385 56.020004,60.403126 
	C65.132561,57.096260 74.263908,54.189804 83.742172,51.114075 
	C84.952705,51.453484 85.816322,51.962162 86.674789,53.025467 
	C85.113091,55.720062 83.556549,57.860035 81.593880,60.020210 
	C79.092293,60.384735 76.841576,60.354412 74.931442,61.145958 
	C69.875748,63.241013 64.967430,65.691734 59.625351,68.000641 
	C58.500023,67.999268 57.749802,67.998184 56.999573,67.997093 
z"/>
<path fill="#F89657" opacity="1.000000" stroke="none" 
	d="
M82.000000,60.000000 
	C83.556549,57.860035 85.113091,55.720062 86.832832,53.294540 
	C87.488152,53.264439 87.980286,53.519890 88.720947,53.898132 
	C89.878716,55.486557 90.787964,56.952187 91.857925,58.697090 
	C92.265999,59.482151 92.513344,59.987938 92.878677,60.748199 
	C92.996666,61.002670 92.989777,61.010715 92.685486,61.182899 
	C89.921913,62.237099 87.462631,63.119122 84.850266,63.726974 
	C83.798126,62.301868 82.899063,61.150932 82.000000,60.000000 
z"/>
<path fill="#F58F48" opacity="1.000000" stroke="none" 
	d="
M97.842346,65.721779 
	C96.254814,69.287560 94.508293,72.570488 92.173187,75.749268 
	C90.772728,75.069237 89.960854,74.493340 89.102264,73.690491 
	C89.055557,73.463539 88.971016,73.007828 89.316315,72.905014 
	C90.770996,68.871704 91.880386,64.941208 92.989777,61.010715 
	C92.989777,61.010715 92.996666,61.002670 92.998978,61.002724 
	C94.561981,62.481495 96.122665,63.960213 97.842346,65.721779 
z"/>
<path fill="#F18E39" opacity="1.000000" stroke="none" 
	d="
M56.228081,89.256447 
	C56.256859,88.508980 56.510193,88.007759 57.279419,87.256714 
	C59.863468,87.336929 61.931622,87.666954 64.372414,88.061935 
	C67.189590,87.742088 69.634125,87.357277 72.305359,87.179504 
	C73.010117,88.261566 73.488167,89.136612 74.000824,90.342049 
	C75.020157,92.116974 76.004883,93.561493 76.989616,95.006020 
	C77.054115,100.185883 73.988358,100.794243 70.417755,98.783028 
	C65.561142,96.047447 61.089417,92.628555 56.228081,89.256447 
z"/>
<path fill="#080503" opacity="1.000000" stroke="none" 
	d="
M77.333633,95.082596 
	C76.004883,93.561493 75.020157,92.116974 74.356491,90.185715 
	C78.921959,87.760582 83.391037,86.182785 87.318527,83.735741 
	C89.364830,82.460762 90.456467,79.653542 91.951035,77.370689 
	C91.922745,77.202950 92.205765,77.014153 92.205765,77.014153 
	C92.233597,77.347923 92.261429,77.681702 92.405945,78.504128 
	C91.372475,83.365089 90.868156,88.056152 88.907570,92.028465 
	C86.493752,96.919006 82.915634,97.477303 77.333633,95.082596 
z"/>
<path fill="#0C0D0C" opacity="1.000000" stroke="none" 
	d="
M91.979324,77.538429 
	C90.456467,79.653542 89.364830,82.460762 87.318527,83.735741 
	C83.391037,86.182785 78.921959,87.760582 74.321884,89.855316 
	C73.488167,89.136612 73.010117,88.261566 72.329849,86.781662 
	C72.092659,85.118584 72.057671,84.060364 72.412338,83.069153 
	C80.290184,85.043800 83.685524,83.427040 87.039436,76.505859 
	C87.511757,75.531181 88.434647,74.774841 89.148979,73.917442 
	C89.960854,74.493340 90.772728,75.069237 91.835281,75.813278 
	C92.091743,76.171928 92.097527,76.362434 92.132431,76.947266 
	C92.161568,77.341599 91.979324,77.538429 91.979324,77.538429 
z"/>
<path fill="#F58F48" opacity="1.000000" stroke="none" 
	d="
M91.951035,77.370689 
	C91.979324,77.538429 92.161568,77.341599 92.154877,77.232269 
	C92.148186,77.122948 92.172501,77.073402 92.189133,77.043777 
	C92.205765,77.014153 91.922745,77.202950 91.951035,77.370689 
z"/>
<path fill="#F99852" opacity="1.000000" stroke="none" 
	d="
M56.716454,68.156082 
	C57.749802,67.998184 58.500023,67.999268 59.636597,68.353287 
	C60.682167,70.137367 61.341389,71.568535 61.942200,73.360512 
	C61.588551,75.147148 61.293316,76.572960 60.560806,77.999207 
	C58.083317,77.998093 56.043110,77.996559 54.002899,77.995033 
	C53.671093,75.601105 53.339291,73.207169 53.003437,70.407745 
	C54.144035,69.439865 55.288681,68.877472 56.716454,68.156082 
z"/>
<path fill="#F99546" opacity="1.000000" stroke="none" 
	d="
M54.001736,78.329605 
	C56.043110,77.996559 58.083317,77.998093 60.680161,78.253029 
	C61.492146,79.005829 61.747498,79.505226 62.063206,80.372040 
	C62.748962,83.158630 63.374367,85.577805 63.999771,87.996979 
	C61.931622,87.666954 59.863468,87.336929 57.398464,87.002380 
	C56.036789,84.896317 55.071964,82.794769 54.051353,80.347832 
	C53.997238,79.556358 53.998905,79.110268 54.001736,78.329605 
z"/>
<path fill="#F89F56" opacity="1.000000" stroke="none" 
	d="
M62.000610,72.999695 
	C61.341389,71.568535 60.682167,70.137367 60.011703,68.353561 
	C64.967430,65.691734 69.875748,63.241013 74.931442,61.145958 
	C76.841576,60.354412 79.092293,60.384735 81.593872,60.020206 
	C82.899063,61.150932 83.798126,62.301868 84.828705,64.129684 
	C84.548515,66.077789 84.136818,67.349007 83.396500,68.444794 
	C82.682121,67.958824 82.296349,67.648293 81.888199,67.224380 
	C81.865807,67.111000 81.430069,67.024559 81.183655,66.785980 
	C78.903214,63.878254 77.073753,64.195038 75.364868,66.900085 
	C74.683525,67.978600 73.927109,69.009697 72.800064,70.050690 
	C68.930382,71.025902 65.465492,72.012802 62.000610,72.999695 
z"/>
<path fill="#F5964C" opacity="1.000000" stroke="none" 
	d="
M83.725121,68.620232 
	C84.136818,67.349007 84.548515,66.077789 84.981789,64.403854 
	C87.462631,63.119122 89.921913,62.237099 92.685486,61.182899 
	C91.880386,64.941208 90.770996,68.871704 89.019165,72.788086 
	C86.826180,71.389397 85.275650,70.004814 83.725121,68.620232 
z"/>
<path fill="#1C1E1E" opacity="1.000000" stroke="none" 
	d="
M83.396500,68.444794 
	C85.275650,70.004814 86.826180,71.389397 88.673859,72.890900 
	C88.971016,73.007828 89.055557,73.463539 89.102264,73.690491 
	C88.434647,74.774841 87.511757,75.531181 87.039436,76.505859 
	C83.685524,83.427040 80.290184,85.043800 72.231377,82.809891 
	C71.522476,82.324554 71.384186,82.165482 71.348602,81.577850 
	C71.685242,79.107185 71.919174,77.065079 72.521957,75.018860 
	C73.870102,75.027046 74.849396,75.039337 75.887329,75.432709 
	C76.945335,76.813828 77.862068,78.468628 78.970009,78.608475 
	C79.870110,78.722076 81.753494,77.115417 81.883972,76.102104 
	C82.254150,73.227180 81.949509,70.265358 81.910583,67.337753 
	C82.296349,67.648293 82.682121,67.958824 83.396500,68.444794 
z"/>
<path fill="#F79F42" opacity="1.000000" stroke="none" 
	d="
M71.245895,82.006416 
	C71.384186,82.165482 71.522476,82.324554 71.841736,82.742889 
	C72.057671,84.060364 72.092659,85.118584 72.103149,86.574631 
	C69.634125,87.357277 67.189590,87.742088 64.372414,88.061935 
	C63.374367,85.577805 62.748962,83.158630 62.430435,80.431664 
	C65.573509,80.751389 68.409706,81.378899 71.245895,82.006416 
z"/>
<path fill="#F9A24D" opacity="1.000000" stroke="none" 
	d="
M71.348602,81.577850 
	C68.409706,81.378899 65.573509,80.751389 62.370087,80.064247 
	C61.747498,79.505226 61.492146,79.005829 61.117435,78.252609 
	C61.293316,76.572960 61.588551,75.147148 61.942200,73.360512 
	C65.465492,72.012802 68.930382,71.025902 72.732864,70.409439 
	C72.764679,72.194244 72.458900,73.608612 72.153114,75.022972 
	C71.919174,77.065079 71.685242,79.107185 71.348602,81.577850 
z"/>
<path fill="#626667" opacity="1.000000" stroke="none" 
	d="
M81.888199,67.224380 
	C81.949509,70.265358 82.254150,73.227180 81.883972,76.102104 
	C81.753494,77.115417 79.870110,78.722076 78.970009,78.608475 
	C77.862068,78.468628 76.945335,76.813828 75.948639,75.027672 
	C76.318146,70.727974 76.278320,66.905685 81.430069,67.024559 
	C81.430069,67.024559 81.865807,67.111000 81.888199,67.224380 
z"/>
<path fill="#30302C" opacity="1.000000" stroke="none" 
	d="
M81.183655,66.785980 
	C76.278320,66.905685 76.318146,70.727974 75.889992,74.646591 
	C74.849396,75.039337 73.870102,75.027046 72.521973,75.018860 
	C72.458900,73.608612 72.764679,72.194244 73.137665,70.421127 
	C73.927109,69.009697 74.683525,67.978600 75.364868,66.900085 
	C77.073753,64.195038 78.903214,63.878254 81.183655,66.785980 
z"/>
</svg>